/* XPM */
static char *bitcoin128[] = {
/* columns rows colors chars-per-pixel */
"128 128 2 1 ",
"  c #FF9900",
". c None",
/* pixels */
"................................................................................................................................",
"................................................................................................................................",
"................................................................................................................................",
"...........................................................          ...........................................................",
"....................................................                        ....................................................",
"................................................                                ................................................",
"............................................                                        ............................................",
"..........................................                                            ..........................................",
".......................................                                                  .......................................",
".....................................                                                      .....................................",
"...................................                                                          ...................................",
".................................                                                              .................................",
"................................                                                                ................................",
"..............................                                                                    ..............................",
".............................                                                                      .............................",
"...........................                                                                          ...........................",
"..........................                                                                            ..........................",
".........................                                                                              .........................",
"........................                                                                                ........................",
".......................                                                                                  .......................",
"......................                                                                                    ......................",
".....................                                                                                      .....................",
"....................                                                                                        ....................",
"...................                                                                                          ...................",
"..................                                                                                            ..................",
".................                                                                                              .................",
"................                                                                                                ................",
"...............                                                                                                  ...............",
"...............                                                                                                  ...............",
"..............                                                                                                    ..............",
".............                                                                                                      .............",
".............                                                                                                      .............",
"............                                                                                                        ............",
"...........                                                                     .                                    ...........",
"...........                                                                   ..                                     ...........",
"..........                                         ..                       ...                                       ..........",
"..........                                         ....                    ..                                         ..........",
".........                                          .....                 ...                                           .........",
".........                                          ......               ..                                             .........",
"........                                    ..      ......            ...         .                                     ........",
"........                                    ..       .....           ..          ..                                     ........",
"........                                    ...       .....         ..          ....                                    ........",
".......                                     ....      ......       ..           ....                                     .......",
".......                                    ......      ......     ..           .....                                     .......",
"......                                     .......      ......  ...           ......                                      ......",
"......                                     ........      .........           .......                                      ......",
"......                                     ........       .......           .........                                     ......",
"......                                     .........       .....            .........                                     ......",
".....                                     ...........                      ..........                                      .....",
".....                                     ............                    ...........                                      .....",
".....                                     .............                  .............                                     .....",
".....                                     .............                 ..............                                     .....",
"....                                     ...............                ..............                                      ....",
"....                                     ................              ...............                                      ....",
"....                                     .................            .................                                     ....",
"....                                     ..................          ..................                                     ....",
"....                                    ...................         ...................                                     ....",
"....                                    ....................        ...................                                     ....",
"....                                    .....................      .....................                                    ....",
"...                                     ......................    ......................                                     ...",
"...                                    ........................  .......................                                     ...",
"...                                    .................................................                                     ...",
"...                                    ............ ........................ ...........                                     ...",
"...                                    ...........  .......................  ............                                    ...",
"...                                    ...........   ......................   ...........                                    ...",
"...                                   ............    ....................    ...........                                    ...",
"...                                   ............     ..................     ...........                                    ...",
"...                                   ...........       ................      ............                                   ...",
"...                                   ...........        ..............        ...........                                   ...",
"....                                 ............         ............         ...........                                  ....",
"....                                 ............         ............         ...........                                  ....",
"....                                 ...........           ..........          ............                                 ....",
"....                                 ...........            ........            ...........                                 ....",
"....                                ............             ......             ...........                                 ....",
"....                                ............              ....              ...........                                 ....",
"....                                ...........                ..               ............                                ....",
".....                               ...........                ..                ...........                               .....",
".....                              ............                                  ...........                               .....",
".....                              ............                                  ...........                               .....",
".....                              ...........                                   ...........                               .....",
"......                             ...........                                    ...........                             ......",
"......                            ............                                    ...........                             ......",
"......                            ............                                    ...........                             ......",
"......                            ...........                                     ...........                             ......",
".......                           ...........                                      ...........                           .......",
".......                          ............                                      ...........                           .......",
"........                          ...........                                      ...........                          ........",
"........                                                                                                                ........",
"........                                                                                                                ........",
".........                                                                                                              .........",
".........                                                                                                              .........",
"..........                                                                                                            ..........",
"..........                                                                                                            ..........",
"...........                                                                                                          ...........",
"...........                                                                                                          ...........",
"............                                                                                                        ............",
".............                                                                                                      .............",
".............                                                                                                      .............",
"..............                                                                                                    ..............",
"...............                                                                                                  ...............",
"...............                                                                                                  ...............",
"................                                                                                                ................",
".................                                                                                              .................",
"..................                                                                                            ..................",
"...................                                                                                          ...................",
"....................                                                                                        ....................",
".....................                                                                                      .....................",
"......................                                                                                    ......................",
".......................                                                                                  .......................",
"........................                                                                                ........................",
".........................                                                                              .........................",
"..........................                                                                            ..........................",
"...........................                                                                          ...........................",
".............................                                                                      .............................",
"..............................                                                                    ..............................",
"................................                                                                ................................",
".................................                                                              .................................",
"...................................                                                          ...................................",
".....................................                                                      .....................................",
".......................................                                                  .......................................",
"..........................................                                            ..........................................",
"............................................                                        ............................................",
"................................................                                ................................................",
"....................................................                        ....................................................",
"...........................................................          ...........................................................",
"................................................................................................................................",
"................................................................................................................................",
"................................................................................................................................"
};
