/* XPM */
static char * monetaryunit16_xpm[] = {
"16 16 135 2",
"  	c None",
". 	c #F1BB11",
"+ 	c #E7A213",
"@ 	c #F1C410",
"# 	c #F3C011",
"$ 	c #F4BE12",
"% 	c #EFB812",
"& 	c #E39C11",
"* 	c #DE9311",
"= 	c #E29912",
"- 	c #E19914",
"; 	c #F4BE11",
"> 	c #F3C012",
", 	c #F4BD12",
"' 	c #F0B812",
") 	c #E29C0F",
"! 	c #DE950E",
"~ 	c #DF9510",
"{ 	c #E29713",
"] 	c #F4C111",
"^ 	c #F5BF12",
"/ 	c #F5BC12",
"( 	c #F5B711",
"_ 	c #F0AD10",
": 	c #DF930E",
"< 	c #DC900E",
"[ 	c #DE940E",
"} 	c #DF960F",
"| 	c #DE9510",
"1 	c #E09812",
"2 	c #F4C312",
"3 	c #F4BF12",
"4 	c #F5B811",
"5 	c #F5B110",
"6 	c #F5B010",
"7 	c #EFA40F",
"8 	c #DA880E",
"9 	c #D7880E",
"0 	c #DA8C0E",
"a 	c #E49A14",
"b 	c #F5B911",
"c 	c #F5AC10",
"d 	c #F5BA12",
"e 	c #F5C513",
"f 	c #F0B411",
"g 	c #DB900E",
"h 	c #DE930F",
"i 	c #DE910F",
"j 	c #D7860E",
"k 	c #DD920E",
"l 	c #DF950F",
"m 	c #E09612",
"n 	c #F3C110",
"o 	c #F5BD12",
"p 	c #F5B311",
"q 	c #F5A60F",
"r 	c #F5D016",
"s 	c #F5D917",
"t 	c #EFB311",
"u 	c #E0930E",
"v 	c #ECAA11",
"w 	c #E8A310",
"x 	c #D5810E",
"y 	c #DE950F",
"z 	c #E29914",
"A 	c #F3C712",
"B 	c #F5AD10",
"C 	c #F5DA17",
"D 	c #F5E018",
"E 	c #F2CE16",
"F 	c #ECAE11",
"G 	c #EFB011",
"H 	c #EDAB11",
"I 	c #D8850E",
"J 	c #D8870E",
"K 	c #DE940F",
"L 	c #DE960F",
"M 	c #E29A15",
"N 	c #F4C412",
"O 	c #F5C012",
"P 	c #F5B511",
"Q 	c #F5DC18",
"R 	c #F5C213",
"S 	c #F4CB15",
"T 	c #EAAD11",
"U 	c #E2980F",
"V 	c #EEAD11",
"W 	c #DC8D0F",
"X 	c #DF9610",
"Y 	c #E39B14",
"Z 	c #F3C411",
"` 	c #F5C113",
" .	c #F0A80F",
"..	c #DD8E0E",
"+.	c #D8860E",
"@.	c #EDAA11",
"#.	c #E1960F",
"$.	c #F3C112",
"%.	c #F5BB12",
"&.	c #F5C414",
"*.	c #F5C214",
"=.	c #F5A50F",
"-.	c #EF9B0E",
";.	c #D8830E",
">.	c #D5800E",
",.	c #E3980F",
"'.	c #E2990F",
").	c #DD930E",
"!.	c #E19611",
"~.	c #F3C312",
"{.	c #F5AE10",
"].	c #F5A40F",
"^.	c #D47F0E",
"/.	c #D9880E",
"(.	c #E29813",
"_.	c #F5B611",
":.	c #F0AC10",
"<.	c #DE920E",
"[.	c #DC8F0E",
"}.	c #E19712",
"|.	c #F4C110",
"1.	c #F4C012",
"2.	c #F0B712",
"3.	c #E39C0F",
"4.	c #E09613",
"5.	c #F3BF11",
"6.	c #F3C211",
"7.	c #F3BD11",
"8.	c #EFB711",
"9.	c #E39C10",
"0.	c #DE9410",
"a.	c #E09712",
"b.	c #E39813",
"c.	c #F1BF11",
"d.	c #E7A413",
"              . +               ",
"        @ # $ % & * = -         ",
"      ; > , , ' ) ! ! ~ {       ",
"    ] $ ^ / ( _ : < [ } | 1     ",
"  2 3 ^ 4 5 6 7 8 9 0 < } ~ a   ",
"  2 $ b c d e f g h i j k l m   ",
"n 3 o p q r s t u v w x 0 y ~ z ",
"A 3 o B c C D E F G H I J K L M ",
"N O o B P Q R S T U V W J K X Y ",
"Z 3 o p ` s c  ...+.@.#.0 l ~ z ",
"  $.$ %.&.*.=.-.;.>.,.'.).l !.  ",
"  ~.3 ^ d {.].-.;.^./.k } X (.  ",
"    # $ ^ %._.:.<.[.).} y }.    ",
"      |.1.$ , 2.3.l l | 4.      ",
"        5.6.7.8.9.0.a.b.        ",
"              c.d.              "};
