/* XPM */
static char * monetaryunit32_xpm[] = {
"32 32 361 2",
"  	c None",
". 	c #F3BB10",
"+ 	c #F5CA13",
"@ 	c #F4DB15",
"# 	c #F5CF15",
"$ 	c #F3C115",
"% 	c #EAA818",
"& 	c #E9A41B",
"* 	c #E7A51E",
"= 	c #ECA519",
"- 	c #F0A514",
"; 	c #F3CB13",
"> 	c #F5C914",
", 	c #F5CC15",
"' 	c #F3BC12",
") 	c #F4BA12",
"! 	c #F5C915",
"~ 	c #EFAD11",
"{ 	c #DD8D11",
"] 	c #E19B13",
"^ 	c #DD9114",
"/ 	c #DC8F16",
"( 	c #E59E19",
"_ 	c #E8A21A",
": 	c #ECA41A",
"< 	c #F5C612",
"[ 	c #F5D414",
"} 	c #F4BF12",
"| 	c #F4B812",
"1 	c #F5CA15",
"2 	c #F4B111",
"3 	c #F5B211",
"4 	c #F5D316",
"5 	c #EFB211",
"6 	c #DF930F",
"7 	c #E8A711",
"8 	c #DC8E0F",
"9 	c #D8860E",
"0 	c #E39E11",
"a 	c #DD9313",
"b 	c #DD9116",
"c 	c #E5A01C",
"d 	c #ECA619",
"e 	c #F4C613",
"f 	c #F4C714",
"g 	c #F4CB15",
"h 	c #F4B311",
"i 	c #F5B010",
"j 	c #F5D116",
"k 	c #F5C514",
"l 	c #F5B611",
"m 	c #F5CF16",
"n 	c #F0B511",
"o 	c #E1960F",
"p 	c #E7A611",
"q 	c #DD900F",
"r 	c #E0980F",
"s 	c #E8A811",
"t 	c #DB8D0E",
"u 	c #D8870E",
"v 	c #E29B13",
"w 	c #E39C19",
"x 	c #EBA319",
"y 	c #F1A313",
"z 	c #F5CF14",
"A 	c #F5C013",
"B 	c #F4A80F",
"C 	c #F5B411",
"D 	c #F5AB10",
"E 	c #F5C614",
"F 	c #EFB111",
"G 	c #E0930F",
"H 	c #E39E10",
"I 	c #D7850E",
"J 	c #E19910",
"K 	c #E29B10",
"L 	c #E5A111",
"M 	c #E6A311",
"N 	c #D7850F",
"O 	c #E8A21B",
"P 	c #F5D214",
"Q 	c #F4CC14",
"R 	c #F5C815",
"S 	c #F5B712",
"T 	c #F5BA12",
"U 	c #F5CB15",
"V 	c #F5B912",
"W 	c #F5BE13",
"X 	c #F1BC13",
"Y 	c #E49F10",
"Z 	c #E39D10",
"` 	c #DF960F",
" .	c #E4A010",
"..	c #DB8D0F",
"+.	c #DC8F0F",
"@.	c #E6A211",
"#.	c #DF950F",
"$.	c #DB8C0F",
"%.	c #E19810",
"&.	c #E39E16",
"*.	c #E6A11C",
"=.	c #F4BD13",
"-.	c #F5AD10",
";.	c #F5CE15",
">.	c #F5CD15",
",.	c #F5AE10",
"'.	c #F5B812",
").	c #F5BF13",
"!.	c #F5A810",
"~.	c #EFA00F",
"{.	c #DA870E",
"].	c #D7830E",
"^.	c #D9890E",
"/.	c #DE930F",
"(.	c #D7860E",
"_.	c #E4A011",
":.	c #DA8C0F",
"<.	c #DC9016",
"[.	c #F3C212",
"}.	c #F5D016",
"|.	c #F5C113",
"1.	c #F5C314",
"2.	c #F5A910",
"3.	c #F5A40F",
"4.	c #F5A20F",
"5.	c #EF9B0E",
"6.	c #D8820E",
"7.	c #D47E0E",
"8.	c #D5820E",
"9.	c #D78A0E",
"0.	c #D88A0E",
"a.	c #DE920F",
"b.	c #E09710",
"c.	c #E19A10",
"d.	c #DD9110",
"e.	c #E6A01A",
"f.	c #EEA518",
"g.	c #F5CE14",
"h.	c #F4BB12",
"i.	c #F5CE16",
"j.	c #F5B311",
"k.	c #F5A30F",
"l.	c #F5A80F",
"m.	c #F5AF10",
"n.	c #D7890E",
"o.	c #D98F0F",
"p.	c #D78A0F",
"q.	c #D7840E",
"r.	c #D47F0E",
"s.	c #E29C10",
"t.	c #DB8C0E",
"u.	c #E7A511",
"v.	c #DF9513",
"w.	c #E6A01B",
"x.	c #F5C814",
"y.	c #F4A910",
"z.	c #F5C714",
"A.	c #EFA810",
"B.	c #DD940F",
"C.	c #D9910F",
"D.	c #D6850E",
"E.	c #DB8B0E",
"F.	c #E49B10",
"G.	c #D6820E",
"H.	c #DD920F",
"I.	c #DF9518",
"J.	c #F3CC15",
"K.	c #F5C413",
"L.	c #F5AC10",
"M.	c #F5BC13",
"N.	c #F5BC12",
"O.	c #F5B011",
"P.	c #F5E019",
"Q.	c #F2C515",
"R.	c #DF9C11",
"S.	c #D5830E",
"T.	c #E9A511",
"U.	c #F0B012",
"V.	c #DA890E",
"W.	c #DE950F",
"X.	c #E0970F",
"Y.	c #E49E14",
"Z.	c #EAA41A",
"`.	c #F3B70F",
" +	c #F5BB13",
".+	c #F6E71B",
"++	c #F6E91B",
"@+	c #F5AB0F",
"#+	c #EFA710",
"$+	c #D9850E",
"%+	c #E69F10",
"&+	c #F4B713",
"*+	c #F3B613",
"=+	c #DE910F",
"-+	c #E39C10",
";+	c #E5A011",
">+	c #DD9010",
",+	c #E59D1A",
"'+	c #F0A314",
")+	c #F4C411",
"!+	c #F5B811",
"~+	c #F6EB1B",
"{+	c #F7EC1C",
"]+	c #F6E61A",
"^+	c #F5C214",
"/+	c #EF9E0E",
"(+	c #D9840E",
"_+	c #E2980F",
":+	c #F3B513",
"<+	c #F6BA14",
"[+	c #F5B913",
"}+	c #E49C10",
"|+	c #DD910F",
"1+	c #D8880E",
"2+	c #DC900F",
"3+	c #D6840E",
"4+	c #E09618",
"5+	c #EEA519",
"6+	c #F5D216",
"7+	c #F5B612",
"8+	c #F5A70F",
"9+	c #F5D417",
"0+	c #F6EA1B",
"a+	c #F6E019",
"b+	c #EFB412",
"c+	c #E3970F",
"d+	c #F0B112",
"e+	c #EAA611",
"f+	c #D6810E",
"g+	c #E5A211",
"h+	c #E5A017",
"i+	c #F4D114",
"j+	c #F4BC13",
"k+	c #F5BD12",
"l+	c #F5B511",
"m+	c #F6DF19",
"n+	c #F5DD18",
"o+	c #F4D818",
"p+	c #F1B713",
"q+	c #EEAD11",
"r+	c #EFAE12",
"s+	c #EFAF12",
"t+	c #D9860E",
"u+	c #DE9316",
"v+	c #E9A51D",
"w+	c #F6E31A",
"x+	c #F6C114",
"y+	c #DE900F",
"z+	c #F5B813",
"A+	c #F2B513",
"B+	c #DD8F0F",
"C+	c #E09810",
"D+	c #DA8B0F",
"E+	c #DA8A0F",
"F+	c #DC8F15",
"G+	c #EDA519",
"H+	c #F4C412",
"I+	c #F5C414",
"J+	c #F5C114",
"K+	c #F5DD19",
"L+	c #F2BB13",
"M+	c #E29810",
"N+	c #E6A411",
"O+	c #E4A017",
"P+	c #EEA618",
"Q+	c #F5C613",
"R+	c #F5BD13",
"S+	c #F5A60F",
"T+	c #F3BE13",
"U+	c #E4A111",
"V+	c #D5810E",
"W+	c #E8A310",
"X+	c #D5800E",
"Y+	c #E29B18",
"Z+	c #EEA619",
"`+	c #F5AA10",
" @	c #F6DC19",
".@	c #F7EB1B",
"+@	c #F5D617",
"@@	c #EF9F0E",
"#@	c #ECA811",
"$@	c #EEAC12",
"%@	c #E1990F",
"&@	c #D8880F",
"*@	c #E09A1A",
"=@	c #F5D315",
"-@	c #F5C213",
";@	c #F5B512",
">@	c #F6E21A",
",@	c #E69E10",
"'@	c #F1B112",
")@	c #DE940F",
"!@	c #E49F14",
"~@	c #E9A41C",
"{@	c #F4C512",
"]@	c #F4C314",
"^@	c #F4A90F",
"/@	c #F5C014",
"(@	c #E29710",
"_@	c #E19817",
":@	c #F3C914",
"<@	c #F5B111",
"[@	c #DB8C11",
"}@	c #E69E1A",
"|@	c #F3D214",
"1@	c #F4D316",
"2@	c #E49E10",
"3@	c #E29A10",
"4@	c #E5A019",
"5@	c #EBA61C",
"6@	c #F4D315",
"7@	c #F4B912",
"8@	c #F5D015",
"9@	c #F5CA14",
"0@	c #F5BB12",
"a@	c #E5A010",
"b@	c #E8A31D",
"c@	c #F1BA12",
"d@	c #DC900E",
"e@	c #E19915",
"f@	c #E79F1A",
"g@	c #F3BF11",
"h@	c #F5CB14",
"i@	c #F3BB12",
"j@	c #EFAF11",
"k@	c #DF940F",
"l@	c #DD9115",
"m@	c #E9A11A",
"n@	c #F0A515",
"o@	c #F5D615",
"p@	c #F4AF10",
"q@	c #F0AF11",
"r@	c #E39A0F",
"s@	c #E7A411",
"t@	c #DA8A0E",
"u@	c #E39D12",
"v@	c #E09617",
"w@	c #E6A11E",
"x@	c #F4C914",
"y@	c #F4AE10",
"z@	c #E2990F",
"A@	c #DA8B0E",
"B@	c #DA8B11",
"C@	c #E7A019",
"D@	c #ECA61B",
"E@	c #F4CB14",
"F@	c #F4B712",
"G@	c #F4C614",
"H@	c #EFA510",
"I@	c #DE9010",
"J@	c #DA8B12",
"K@	c #DC8E14",
"L@	c #E49E18",
"M@	c #E59E1C",
"N@	c #F4CA14",
"O@	c #F5CD14",
"P@	c #F2C716",
"Q@	c #E7A71A",
"R@	c #EAA31A",
"S@	c #E9A21A",
"T@	c #EDA51A",
"                                                                ",
"                      . + @ # $ % & * = -                       ",
"                  ; > , ' ) ! ~ { ] ^ / ( _ :                   ",
"              < [ } | 1 2 3 4 5 6 7 8 9 0 a b c d               ",
"            e f g h i j k l m n o p q r s t u v w x y           ",
"          z A B 1 m C A k D E F G H I J K t L M N b O           ",
"        P Q R S T U V 3 1 W E X Y Z `  ...+.@.#.$.%.&.*.        ",
"      f =.-.;.>.,.'.1 ).T ,.!.~.{.].^./.r  ./.(._.p :.<.x       ",
"    [.}.|.l l 1.k ).T 2.3.D 4.5.6.7.8.9.0.a.b.c.Z a.$.d.e.f.    ",
"    g.h.i.}.S j.k j.k.l.m., 3 5.6.n.o.p.q.r...s.$.t.@.u.v.w.    ",
"    x.y.S W z.k j.4.l.E C k ;.A.B.C.D.E.F.G.7...K Z J H.G.I.    ",
"  J.# >.K.L.M.N.k.4.O.P.j 3 z.Q.R.S.9 T.U.V.7.r.#.W.I X.Z Y.Z.  ",
"`.f j.k ! z.z.D 4.4. +.+++1 @+#+$+G.%+&+*+=+7.7.u -+Z L ;+>+,+'+",
")+f m.!+L.'.W k.4.k.R ~+{+]+^+/+(+_+:+<+[+}+r.7.r.b.|+1+2+3+4+5+",
"  4 m 6+k E 7+4.4.8+9+~+0+~+a+b+c+d+[+[+[+e+f+7.7.q c.%.u.g+h+  ",
"i+j+C k+l+1.3 4.4.-.m+~+n+n+{+o+p+[+q+r+[+s+t+7.7...K a.J |+u+v+",
"e A 7+).7+1.3 4.4.'.]+0+k T a+w+x+s+y+F.z+A+B+7.7.$.C+D+/.E+F+G+",
"H+6+m j I+k 7+4.k.I+0+]+V 3.J+K+L+o r.=+*+z+M+7.7.q H H 7 N+O+P+",
")+Q+-.'.L.V R+k.S+6+~+a+,.4.S+T+U+V+7.^.d+[+W+X+r.#.+.u H.:.Y+Z+",
"  ;.S x.! x.E `+D  @.@+@8+4.4.@@t+7.7.G.#@<+$@I I Z Z -+%@&@*@  ",
"  =@;.U -@L.R+T ;@>@++! k.4.4.5.6.7.7.r.,@&+'@$.H.)@^.Z u.!@~@  ",
"  {@]@^@'.).z.k M./@J+O.4.4.4.5.6.7.7.7.V.(@o 6 Z K H.+.I _@G+  ",
"    :@=.}.;.l+l I+<@4.4.4.4.4.5.6.7.7.7.7.7.D+c.../.u.;+[@}@    ",
"    |@1@R+l S 1.k A 7+S+4.4.4.5.6.7.7.7.G.2+b.2@` t |+3@4@5@    ",
"      6@7@2 8@9@L.0@! W 7+D S+/+$+G.9 +.` a@+.E+M a@I F+b@      ",
"        x., E l+M.U l S 1 ).k c@Y K X.a@t /.Y d@/.;+e@f@        ",
"        g@h@i@`+;., j.1.|.D x.j@_+K (.Z k@t p Z V+l@m@n@        ",
"            o@> x.p@;@4 A S m q@r@@.t Z s@t@2+u@v@w@            ",
"              x@x@7@h.1 y@'.9+q@z@s A@..L B@F+C@D@              ",
"                  x@j E@F@0@G@H@I@u@J@K@L@M@:                   ",
"                        > N@O@P@Q@R@S@T@                        ",
"                                                                "};
